<?xml version="1.0" encoding="UTF-8" standalone="no"?>
<!-- Created with Inkscape (http://www.inkscape.org/) -->

<svg
   width="64pt"
   height="64pt"
   viewBox="0 0 22.577778 22.577778"
   version="1.1"
   id="svg831"
   inkscape:version="1.1.2 (b8e25be833, 2022-02-05)"
   sodipodi:docname="Export - Unblash - 64px.svg.2022_11_25_22_15_20.0.svg"
   inkscape:export-filename="E:\Icon Design\TR Icon Design Project\Carlos - Icon Design Project\November\Asli Siap\Flat\10 - Skyscraper.png"
   inkscape:export-xdpi="576"
   inkscape:export-ydpi="576"
   xmlns:inkscape="http://www.inkscape.org/namespaces/inkscape"
   xmlns:sodipodi="http://sodipodi.sourceforge.net/DTD/sodipodi-0.dtd"
   xmlns="http://www.w3.org/2000/svg"
   xmlns:svg="http://www.w3.org/2000/svg"
   xmlns:rdf="http://www.w3.org/1999/02/22-rdf-syntax-ns#"
   xmlns:cc="http://creativecommons.org/ns#"
   xmlns:dc="http://purl.org/dc/elements/1.1/">
  <defs
     id="defs825">
    <pattern
       id="EMFhbasepattern"
       patternUnits="userSpaceOnUse"
       width="6"
       height="6"
       x="0"
       y="0" />
    <pattern
       id="EMFhbasepattern-9"
       patternUnits="userSpaceOnUse"
       width="6"
       height="6"
       x="0"
       y="0" />
    <pattern
       id="EMFhbasepattern-0"
       patternUnits="userSpaceOnUse"
       width="6"
       height="6"
       x="0"
       y="0" />
    <pattern
       id="EMFhbasepattern-7"
       patternUnits="userSpaceOnUse"
       width="6"
       height="6"
       x="0"
       y="0" />
    <pattern
       id="EMFhbasepattern-2"
       patternUnits="userSpaceOnUse"
       width="6"
       height="6"
       x="0"
       y="0" />
    <pattern
       id="EMFhbasepattern-98"
       patternUnits="userSpaceOnUse"
       width="6"
       height="6"
       x="0"
       y="0" />
    <pattern
       id="EMFhbasepattern-6"
       patternUnits="userSpaceOnUse"
       width="6"
       height="6"
       x="0"
       y="0" />
    <pattern
       id="EMFhbasepattern-01"
       patternUnits="userSpaceOnUse"
       width="6"
       height="6"
       x="0"
       y="0" />
    <pattern
       id="EMFhbasepattern-07"
       patternUnits="userSpaceOnUse"
       width="6"
       height="6"
       x="0"
       y="0" />
    <pattern
       id="EMFhbasepattern-8"
       patternUnits="userSpaceOnUse"
       width="6"
       height="6"
       x="0"
       y="0" />
    <pattern
       id="EMFhbasepattern-4"
       patternUnits="userSpaceOnUse"
       width="6"
       height="6"
       x="0"
       y="0" />
    <pattern
       id="EMFhbasepattern-40"
       patternUnits="userSpaceOnUse"
       width="6"
       height="6"
       x="0"
       y="0" />
    <pattern
       id="EMFhbasepattern-08"
       patternUnits="userSpaceOnUse"
       width="6"
       height="6"
       x="0"
       y="0" />
    <pattern
       id="EMFhbasepattern-04"
       patternUnits="userSpaceOnUse"
       width="6"
       height="6"
       x="0"
       y="0" />
    <pattern
       id="EMFhbasepattern-014"
       patternUnits="userSpaceOnUse"
       width="6"
       height="6"
       x="0"
       y="0" />
    <pattern
       id="EMFhbasepattern-27"
       patternUnits="userSpaceOnUse"
       width="6"
       height="6"
       x="0"
       y="0" />
    <pattern
       id="EMFhbasepattern-09"
       patternUnits="userSpaceOnUse"
       width="6"
       height="6"
       x="0"
       y="0" />
    <pattern
       id="EMFhbasepattern-5"
       patternUnits="userSpaceOnUse"
       width="6"
       height="6"
       x="0"
       y="0" />
    <pattern
       id="EMFhbasepattern-018"
       patternUnits="userSpaceOnUse"
       width="6"
       height="6"
       x="0"
       y="0" />
    <pattern
       id="EMFhbasepattern-3"
       patternUnits="userSpaceOnUse"
       width="6"
       height="6"
       x="0"
       y="0" />
  </defs>
  <sodipodi:namedview
     id="base"
     pagecolor="#ffffff"
     bordercolor="#666666"
     borderopacity="1.0"
     inkscape:pageopacity="0.0"
     inkscape:pageshadow="2"
     inkscape:zoom="5.3085938"
     inkscape:cx="42.666667"
     inkscape:cy="42.57248"
     inkscape:document-units="pt"
     inkscape:current-layer="layer1"
     showgrid="false"
     units="pt"
     inkscape:window-width="958"
     inkscape:window-height="1041"
     inkscape:window-x="-7"
     inkscape:window-y="0"
     inkscape:window-maximized="0"
     inkscape:pagecheckerboard="true"
     inkscape:showpageshadow="false"
     inkscape:object-paths="true"
     inkscape:snap-intersection-paths="true"
     inkscape:snap-smooth-nodes="true"
     inkscape:snap-midpoints="true"
     showguides="true"
     inkscape:snap-bbox="true"
     inkscape:bbox-nodes="true"
     inkscape:snap-nodes="false"
     inkscape:snap-global="true"
     inkscape:snap-others="false">
    <inkscape:grid
       type="xygrid"
       id="grid1378" />
    <sodipodi:guide
       position="0.97013831,21.607643"
       orientation="78.000048,0"
       id="guide1380"
       inkscape:locked="false" />
    <sodipodi:guide
       position="0.97013831,0.97013129"
       orientation="0,78.000005"
       id="guide1382"
       inkscape:locked="false" />
    <sodipodi:guide
       position="21.607639,0.97013129"
       orientation="-78.000048,0"
       id="guide1384"
       inkscape:locked="false" />
    <sodipodi:guide
       position="21.607639,21.607643"
       orientation="0,-78.000005"
       id="guide1386"
       inkscape:locked="false" />
  </sodipodi:namedview>
  <metadata
     id="metadata828">
    <rdf:RDF>
      <cc:Work
         rdf:about="">
        <dc:format>image/svg+xml</dc:format>
        <dc:type
           rdf:resource="http://purl.org/dc/dcmitype/StillImage" />
      </cc:Work>
    </rdf:RDF>
  </metadata>
  <g
     inkscape:label="Icon"
     inkscape:groupmode="layer"
     id="layer1"
     transform="translate(0,-274.42223)">
    <g
       id="g187327"
       style="display:inline;stroke-width:0.820525"
       transform="matrix(1.2187323,0,0,1.2187323,75.45674,-257.97916)">
      <path
         style="color:#000000;fill:#70c2ef;stroke-width:0.820525;stroke-linecap:round;stroke-linejoin:round;-inkscape-stroke:none"
         d="m -50.832031,438.73047 v 9.13672 c -5.62e-4,0.14693 0.118693,0.26618 0.265625,0.26562 h 5.322265 c 0.146932,5.6e-4 0.266187,-0.11869 0.265625,-0.26562 v -8.8711 c 5.76e-4,-0.14466 -0.115127,-0.26297 -0.259765,-0.26562 z"
         id="path1375024"
         sodipodi:nodetypes="cccccccc" />
      <path
         id="path1375205"
         style="color:#000000;fill:#5aabdd;fill-opacity:1;stroke-width:0.820525;stroke-linecap:round;stroke-linejoin:round;-inkscape-stroke:none"
         d="m -45.507819,441.07278 v 7.06011 h 0.263552 c 0.146931,5.3e-4 0.266179,-0.11868 0.265615,-0.26562 v -8.87129 c 5.29e-4,-0.14466 -0.114776,-0.26297 -0.259416,-0.26562 h -5.593972 v 1.5875 h 4.569304 a 0.75491789,0.75491789 0 0 1 0.754917,0.75492 z"
         sodipodi:nodetypes="ccccccccc" />
      <path
         style="fill:#e2f0fa;fill-opacity:1;stroke:none;stroke-width:0.434195;stroke-linejoin:round;stroke-opacity:1"
         d="m -55.080732,439.3357 h 4.87884 v 9.18772 h -4.947235 z"
         id="path40112" />
      <path
         id="path1452874"
         style="color:#000000;fill:#c8dae5;fill-opacity:1;stroke-width:0.820525;stroke-linecap:round;stroke-linejoin:round;-inkscape-stroke:none"
         d="m -55.033335,439.3355 v 0.95549 a 0.26460996,0.26460996 0 0 0 0.263549,0.26562 h 4.234884 a 0.26460996,0.26460996 0 0 0 0.263551,-0.26562 v -0.95549 z" />
      <path
         style="color:#000000;fill:#4f697d;stroke-width:0.820525;stroke-linecap:round;stroke-linejoin:round;-inkscape-stroke:none"
         d="m -54.769531,438.43945 a 0.26460996,0.26460996 0 0 0 -0.263672,0.26367 v 1.0586 a 0.26460996,0.26460996 0 0 0 0.263672,0.26562 h 4.234375 a 0.26460996,0.26460996 0 0 0 0.263672,-0.26562 v -1.0586 a 0.26460996,0.26460996 0 0 0 -0.263672,-0.26367 z"
         id="path1359224" />
      <path
         id="path1371793"
         style="color:#000000;fill:#3a4d5c;fill-opacity:1;stroke-width:0.820525;stroke-linecap:round;stroke-linejoin:round;-inkscape-stroke:none"
         d="m -54.769786,438.43943 a 0.26460996,0.26460996 0 0 0 -0.263549,0.26355 v 0.52916 a 0.26460996,0.26460996 0 0 1 0.263549,-0.26355 h 4.234884 a 0.26460996,0.26460996 0 0 1 0.263551,0.26355 v -0.52916 a 0.26460996,0.26460996 0 0 0 -0.263551,-0.26355 z" />
      <path
         style="color:#000000;fill:#70c2ef;stroke-width:0.820525;stroke-linecap:round;stroke-linejoin:round;-inkscape-stroke:none"
         d="m -55.087891,438.64453 -4.986328,0.26367 a 0.26460996,0.26460996 0 0 0 -0.25,0.26563 v 8.58594 a 0.26460996,0.26460996 0 0 0 0.263672,0.26367 h 4.986328 a 0.26460996,0.26460996 0 0 0 0.263672,-0.26367 v -8.85157 a 0.26460996,0.26460996 0 0 0 -0.277344,-0.26367 z"
         id="path1359230" />
      <path
         id="path166866"
         style="color:#000000;fill:#5aabdd;fill-opacity:1;stroke-width:3.1012;stroke-linecap:round;stroke-linejoin:round;-inkscape-stroke:none"
         d="M -208.20703,599.34961 -214,599.65625 v 35.14063 h 5.8457 a 1.0001006,1.0001006 0 0 0 0.9961,-0.9961 V 600.3457 a 1.0001006,1.0001006 0 0 0 -1.04883,-0.99609 z"
         transform="matrix(0.26458334,0,0,0.26458334,0,280.06666)" />
      <path
         id="path1378764"
         style="color:#000000;fill:#5aabdd;fill-opacity:1;stroke-width:0.820525;stroke-linecap:round;stroke-linejoin:round;-inkscape-stroke:none"
         d="m -56.711269,438.73036 -3.363101,0.17777 a 0.26460996,0.26460996 0 0 0 -0.249597,0.26562 v 1.14411 h 4.046781 a 0.75491789,0.75491789 0 0 1 0.754991,0.755 v 6.95048 h 0.448035 a 0.26460996,0.26460996 0 0 0 0.03411,-0.005 c 0.02978,-0.043 0.04724,-0.0951 0.04702,-0.15141 v -8.8713 c 5.29e-4,-0.14465 -0.114776,-0.26296 -0.259413,-0.26561 z" />
      <path
         style="color:#000000;fill:#e2f0fa;stroke-width:0.820525;stroke-linecap:round;stroke-linejoin:round;-inkscape-stroke:none"
         d="m -60.324219,447.84961 a 0.26460996,0.26460996 0 0 0 -0.265625,0.26562 v 6.19922 a 0.26460996,0.26460996 0 0 0 0.265625,0.26367 h 15.345703 a 0.26460996,0.26460996 0 0 0 0.263672,-0.26367 v -6.19922 a 0.26460996,0.26460996 0 0 0 -0.263672,-0.26562 z"
         id="path1359236" />
      <path
         style="color:#000000;fill:#4f697d;stroke-width:0.820525;stroke-linecap:round;stroke-linejoin:round;-inkscape-stroke:none"
         d="m -53.974609,450.08008 c -0.435245,0 -0.794925,0.35968 -0.794922,0.79492 v 3.43945 c 5.18e-4,0.14617 0.119455,0.26423 0.265625,0.26367 h 3.703125 c 0.14617,5.6e-4 0.265107,-0.1175 0.265625,-0.26367 V 450.875 c 3e-6,-0.43524 -0.359677,-0.79492 -0.794922,-0.79492 l -1.056389,0.15338 -0.529685,-0.005 v -0.14882 z"
         id="path1359242"
         sodipodi:nodetypes="ssccccsscccs" />
      <path
         id="path1449077"
         style="color:#000000;fill:#3a4d5c;fill-opacity:1;stroke-width:0.820525;stroke-linecap:round;stroke-linejoin:round;-inkscape-stroke:none"
         d="m -53.974485,450.08006 c -0.355129,0 -0.659977,0.23973 -0.760159,0.5643 0.07324,-0.0226 0.15086,-0.0351 0.230992,-0.0351 h 2.644283 c 0.435245,0 0.795303,0.35954 0.7953,0.79478 v 3.17397 h 0.263033 c 0.146321,8.4e-4 0.26555,-0.11723 0.266134,-0.26355 v -3.43959 c 3e-6,-0.43524 -0.360056,-0.79478 -0.7953,-0.79478 l -1.056265,-3e-5 z"
         sodipodi:nodetypes="scssscccsscs" />
      <path
         id="path4414"
         style="color:#000000;fill:#e2f0fa;stroke-width:0.820525;stroke-linecap:round;stroke-linejoin:round;-inkscape-stroke:none"
         d="m -52.916152,450.08006 v 4.23437 a 0.2645835,0.2645835 0 0 0 0.263551,0.26355 0.2645835,0.2645835 0 0 0 0.266134,-0.26355 v -4.23437 z" />
      <path
         style="color:#000000;fill:#4f697d;stroke-width:0.820525;stroke-linecap:round;stroke-linejoin:round;-inkscape-stroke:none"
         d="m -60.589844,454.04883 a 0.2645835,0.2645835 0 0 0 -0.263672,0.26562 0.2645835,0.2645835 0 0 0 0.263672,0.26367 h 15.875 a 0.2645835,0.2645835 0 0 0 0.265625,-0.26367 0.2645835,0.2645835 0 0 0 -0.265625,-0.26562 z"
         id="path4400" />
      <path
         style="color:#000000;fill:#70c2ef;stroke-width:0.820525;stroke-linecap:round;stroke-linejoin:round;-inkscape-stroke:none"
         d="m -49.326172,449.24805 c -0.372841,0 -0.679686,0.3088 -0.679687,0.68164 v 2.87109 c 10e-7,0.37284 0.306846,0.68164 0.679687,0.68164 h 3.931641 c 0.372841,0 0.679686,-0.3088 0.679687,-0.68164 v -2.87109 c -10e-7,-0.37284 -0.306846,-0.68164 -0.679687,-0.68164 z"
         id="path1359256" />
      <path
         id="path1442546"
         style="color:#000000;fill:#5aabdd;fill-opacity:1;stroke-width:0.820525;stroke-linecap:round;stroke-linejoin:round;-inkscape-stroke:none"
         d="m -49.32619,449.24807 c -0.32549,0 -0.600427,0.23527 -0.665075,0.54312 0.04392,-0.009 0.08948,-0.0139 0.135908,-0.0139 h 3.931545 c 0.37284,0 0.679542,0.30877 0.679545,0.68161 v 2.8711 c 0,0.0473 -0.0046,0.0937 -0.01394,0.13849 0.308507,-0.0642 0.543119,-0.34142 0.543121,-0.66765 v -2.87115 c -2e-6,-0.37284 -0.306705,-0.68161 -0.679545,-0.68161 z" />
      <path
         id="path4418"
         style="color:#000000;fill:#308dd9;stroke-width:0.820525;stroke-linecap:round;stroke-linejoin:round;-inkscape-stroke:none"
         d="m -57.943236,439.23266 a 0.2645835,0.2645835 0 0 0 -0.265615,0.26562 v 1.71876 h -2.115116 v 0.52916 h 2.115116 v 1.45521 h -2.115116 v 0.52917 h 2.115116 v 1.45521 h -2.115116 v 0.52916 h 2.115116 v 1.91203 a 0.2645835,0.2645835 0 0 0 0.265615,0.26355 0.2645835,0.2645835 0 0 0 0.263552,-0.26355 v -1.91203 h 1.853634 a 0.2645835,0.2645835 0 0 0 0.263549,-0.26355 0.2645835,0.2645835 0 0 0 -0.263549,-0.26561 h -1.853634 v -1.45521 h 1.853634 a 0.2645835,0.2645835 0 0 0 0.263549,-0.26355 0.2645835,0.2645835 0 0 0 -0.263549,-0.26562 h -1.853634 v -1.45521 h 1.853634 a 0.2645835,0.2645835 0 0 0 0.263549,-0.26355 0.2645835,0.2645835 0 0 0 -0.263549,-0.26561 h -1.853634 v -1.71876 a 0.2645835,0.2645835 0 0 0 -0.263552,-0.26562 z" />
      <path
         id="path1378769"
         style="color:#000000;fill:#2276bc;fill-opacity:1;stroke-width:0.820525;stroke-linecap:round;stroke-linejoin:round;-inkscape-stroke:none"
         d="m -57.943236,439.23266 a 0.2645835,0.2645835 0 0 0 -0.265615,0.26562 v 0.81958 h 0.529167 v -0.81958 a 0.2645835,0.2645835 0 0 0 -0.263552,-0.26562 z" />
      <path
         style="color:#000000;fill:#4f697d;stroke-width:0.820525;stroke-linecap:round;stroke-linejoin:round;-inkscape-stroke:none"
         d="m -60.324219,438.17383 c -0.289114,0 -0.529293,0.24018 -0.529297,0.52929 v 0.5293 c 4e-6,0.28912 0.240183,0.5293 0.529297,0.5293 h 4.498047 a 0.26460996,0.26460996 0 0 0 0.263672,-0.26367 v -1.0586 a 0.26460996,0.26460996 0 0 0 -0.263672,-0.26562 z"
         id="path1359278" />
      <path
         id="path173914"
         style="color:#000000;fill:#3a4d5c;fill-opacity:1;stroke-width:3.1012;stroke-linecap:round;stroke-linejoin:round;-inkscape-stroke:none"
         d="m -214,597.57031 v 6.00196 h 3.00391 A 1.0001006,1.0001006 0 0 0 -210,602.57617 v -4.00195 a 1.0001006,1.0001006 0 0 0 -0.99609,-1.00391 z"
         transform="matrix(0.26458334,0,0,0.26458334,0,280.06666)" />
      <path
         id="path1366326"
         style="color:#000000;fill:#3a4d5c;fill-opacity:1;stroke-width:0.820525;stroke-linecap:round;stroke-linejoin:round;-inkscape-stroke:none"
         d="m -55.581498,438.17381 h -4.742469 c -0.289116,0 -0.52968,0.24005 -0.529685,0.52917 h 5.29e-4 5.39106 z"
         sodipodi:nodetypes="cscccc" />
      <path
         style="color:#000000;fill:#46a9e7;stroke-width:0.820525;stroke-linecap:round;stroke-linejoin:round;-inkscape-stroke:none"
         d="m -54.240234,440.55664 a 0.26460996,0.26460996 0 0 0 -0.263672,0.26367 v 1.58789 a 0.26460996,0.26460996 0 0 0 0.263672,0.26367 h 0.794922 c 0.289113,0 0.529293,-0.24018 0.529296,-0.52929 v -1.0586 c -3e-6,-0.28911 -0.240183,-0.52734 -0.529296,-0.52734 z"
         id="path1359284" />
      <path
         id="path1456079"
         style="color:#000000;fill:#308dd9;fill-opacity:1;stroke-width:0.820525;stroke-linecap:round;stroke-linejoin:round;-inkscape-stroke:none"
         d="m -54.240101,440.55661 a 0.26460996,0.26460996 0 0 0 -0.263551,0.26355 v 0.26562 h 0.529167 c 0.289112,0 0.529164,0.2385 0.529166,0.52761 v 1.05834 c 0.289113,0 0.529164,-0.24006 0.529167,-0.52917 v -1.05833 c -3e-6,-0.28911 -0.240054,-0.52762 -0.529167,-0.52762 z" />
      <path
         style="color:#000000;fill:#46a9e7;stroke-width:0.820525;stroke-linecap:round;stroke-linejoin:round;-inkscape-stroke:none"
         d="m -51.857422,440.55664 c -0.289115,0 -0.529293,0.23823 -0.529297,0.52734 v 1.0586 c 4e-6,0.28911 0.240182,0.5293 0.529297,0.52929 h 0.792969 a 0.26460996,0.26460996 0 0 0 0.263672,-0.26367 v -1.58789 a 0.26460996,0.26460996 0 0 0 -0.263672,-0.26367 z"
         id="path1359290" />
      <path
         style="color:#000000;fill:#46a9e7;stroke-width:0.820525;stroke-linecap:round;stroke-linejoin:round;-inkscape-stroke:none"
         d="m -51.857422,443.20117 c -0.289115,0 -0.529293,0.24018 -0.529297,0.5293 v 1.05859 c 4e-6,0.28912 0.240182,0.5293 0.529297,0.5293 h 0.792969 a 0.26460996,0.26460996 0 0 0 0.263672,-0.26563 v -1.58593 a 0.26460996,0.26460996 0 0 0 -0.263672,-0.26563 z"
         id="path1359296" />
      <path
         style="color:#000000;fill:#46a9e7;stroke-width:0.820525;stroke-linecap:round;stroke-linejoin:round;-inkscape-stroke:none"
         d="m -54.240234,443.20117 a 0.26460996,0.26460996 0 0 0 -0.263672,0.26563 v 1.58593 a 0.26460996,0.26460996 0 0 0 0.263672,0.26563 h 0.794922 c 0.289113,0 0.529293,-0.24018 0.529296,-0.5293 v -1.05859 c -3e-6,-0.28912 -0.240183,-0.5293 -0.529296,-0.5293 z"
         id="path1359302" />
      <path
         style="color:#000000;fill:#46a9e7;stroke-width:0.820525;stroke-linecap:round;stroke-linejoin:round;-inkscape-stroke:none"
         d="m -54.240234,445.84766 a 0.26460996,0.26460996 0 0 0 -0.263672,0.26367 v 1.58789 a 0.26460996,0.26460996 0 0 0 0.263672,0.26562 h 0.794922 c 0.289113,0 0.529293,-0.24018 0.529296,-0.52929 v -1.0586 c -3e-6,-0.28911 -0.240183,-0.52929 -0.529296,-0.52929 z"
         id="path1359308" />
      <path
         style="color:#000000;fill:#46a9e7;stroke-width:0.820525;stroke-linecap:round;stroke-linejoin:round;-inkscape-stroke:none"
         d="m -51.857422,445.84766 c -0.289115,0 -0.529293,0.24018 -0.529297,0.52929 v 1.0586 c 4e-6,0.28911 0.240182,0.52929 0.529297,0.52929 h 0.792969 a 0.26460996,0.26460996 0 0 0 0.263672,-0.26562 v -1.58789 a 0.26460996,0.26460996 0 0 0 -0.263672,-0.26367 z"
         id="path1359314" />
      <path
         id="path4452"
         style="color:#000000;fill:#308dd9;stroke-width:0.820525;stroke-linecap:round;stroke-linejoin:round;-inkscape-stroke:none"
         d="m -47.361452,439.23266 a 0.2645835,0.2645835 0 0 0 -0.263549,0.26562 v 1.71876 h -1.851568 a 0.2645835,0.2645835 0 0 0 -0.265615,0.26561 0.2645835,0.2645835 0 0 0 0.265615,0.26355 h 1.851568 v 1.45521 h -1.851568 a 0.2645835,0.2645835 0 0 0 -0.265615,0.26562 0.2645835,0.2645835 0 0 0 0.265615,0.26355 h 1.851568 v 1.45521 h -1.851568 a 0.2645835,0.2645835 0 0 0 -0.265615,0.26561 0.2645835,0.2645835 0 0 0 0.265615,0.26355 h 1.851568 v 2.06034 a 0.2645835,0.2645835 0 0 0 0.263549,0.26562 0.2645835,0.2645835 0 0 0 0.265617,-0.26562 v -2.06034 h 2.117183 v -0.52916 h -2.117183 v -1.45521 h 2.117183 v -0.52917 h -2.117183 v -1.45521 h 2.117183 v -0.52916 h -2.117183 v -1.71876 a 0.2645835,0.2645835 0 0 0 -0.265617,-0.26562 z" />
      <path
         id="path1387592"
         style="color:#000000;fill:#2276bc;fill-opacity:1;stroke-width:0.820525;stroke-linecap:round;stroke-linejoin:round;-inkscape-stroke:none"
         d="m -47.361452,439.23266 a 0.2645835,0.2645835 0 0 0 -0.263549,0.26562 v 0.81958 h 0.529166 v -0.81958 a 0.2645835,0.2645835 0 0 0 -0.265617,-0.26562 z m 1.853633,1.98438 v 0.52916 h 0.529167 v -0.52916 z m 0,1.98437 v 0.52917 h 0.529167 v -0.52917 z m 0,1.98438 v 0.52916 h 0.529167 v -0.52916 z" />
      <path
         style="color:#000000;fill:#4f697d;stroke-width:0.820525;stroke-linecap:round;stroke-linejoin:round;-inkscape-stroke:none"
         d="m -49.476562,447.16992 a 0.26460996,0.26460996 0 0 0 -0.265625,0.26563 v 1.05859 a 0.26460996,0.26460996 0 0 0 0.265625,0.26367 h 4.498046 c 0.289107,0 0.529293,-0.24018 0.529297,-0.52929 v -0.5293 c -4e-6,-0.28911 -0.240178,-0.5293 -0.529297,-0.5293 z"
         id="path1359324" />
      <path
         id="path173912"
         style="color:#000000;fill:#3a4d5c;fill-opacity:1;stroke-width:3.1012;stroke-linecap:round;stroke-linejoin:round;-inkscape-stroke:none"
         d="m -186.99805,631.57227 a 1.0001006,1.0001006 0 0 0 -1.0039,1.0039 v 4 a 1.0001006,1.0001006 0 0 0 1.0039,0.9961 h 2.9961 v -6 z"
         transform="matrix(0.26458334,0,0,0.26458334,0,280.06666)" />
      <path
         id="path1408220"
         style="color:#000000;fill:#3a4d5c;fill-opacity:1;stroke-width:0.820525;stroke-linecap:round;stroke-linejoin:round;-inkscape-stroke:none"
         d="m -49.476569,447.17016 a 0.26460996,0.26460996 0 0 0 -0.265615,0.26562 v 0.26355 h 4.234365 c 0.289121,0 0.52968,0.24005 0.529686,0.52916 v 0.52917 c 0.288874,-2.6e-4 0.529161,-0.24023 0.529166,-0.52917 v -0.52916 c -5e-6,-0.28911 -0.240564,-0.52917 -0.529685,-0.52917 z" />
      <path
         style="color:#000000;fill:#4f697d;stroke-width:0.820525;stroke-linecap:round;stroke-linejoin:round;-inkscape-stroke:none"
         d="m -49.476562,438.17383 a 0.26460996,0.26460996 0 0 0 -0.265625,0.26562 v 1.0586 a 0.26460996,0.26460996 0 0 0 0.265625,0.26367 h 4.498046 c 0.289119,0 0.529293,-0.24018 0.529297,-0.5293 v -0.5293 c -4e-6,-0.28911 -0.240178,-0.52929 -0.529297,-0.52929 z"
         id="path1359342" />
      <path
         id="path175956"
         style="color:#000000;fill:#3a4d5c;fill-opacity:1;stroke-width:3.1012;stroke-linecap:round;stroke-linejoin:round;-inkscape-stroke:none"
         d="m -186.99805,597.57031 a 1.0001006,1.0001006 0 0 0 -1.0039,1.00391 v 4.00195 a 1.0001006,1.0001006 0 0 0 1.0039,0.9961 h 2.9961 v -6.00196 z"
         transform="matrix(0.26458334,0,0,0.26458334,0,280.06666)" />
      <path
         style="color:#000000;fill:#4f697d;stroke-width:0.820525;stroke-linecap:round;stroke-linejoin:round;-inkscape-stroke:none"
         d="m -60.324219,447.16992 c -0.289119,0 -0.529293,0.24019 -0.529297,0.5293 v 0.5293 c 4e-6,0.28911 0.24019,0.52929 0.529297,0.52929 h 4.498047 a 0.26460996,0.26460996 0 0 0 0.263672,-0.26367 v -1.05859 a 0.26460996,0.26460996 0 0 0 -0.263672,-0.26563 z"
         id="path1359348" />
      <path
         id="path174935"
         style="color:#000000;fill:#3a4d5c;fill-opacity:1;stroke-width:3.1012;stroke-linecap:round;stroke-linejoin:round;-inkscape-stroke:none"
         d="m -214,631.57227 v 6 h 3.00391 A 1.0001006,1.0001006 0 0 0 -210,636.57617 v -4 a 1.0001006,1.0001006 0 0 0 -0.99609,-1.0039 z"
         transform="matrix(0.26458334,0,0,0.26458334,0,280.06666)" />
      <path
         id="path1406515"
         style="color:#000000;fill:#3a4d5c;fill-opacity:1;stroke-width:0.820525;stroke-linecap:round;stroke-linejoin:round;-inkscape-stroke:none"
         d="m -55.695992,447.69933 0.529167,-0.52917 h -5.157142 c -0.289121,0 -0.52968,0.24006 -0.529685,0.52917 z"
         sodipodi:nodetypes="ccscc" />
      <path
         style="color:#000000;fill:#70c2ef;stroke-width:0.820525;stroke-linecap:round;stroke-linejoin:round;-inkscape-stroke:none"
         d="m -59.908203,449.28711 c -0.372841,0 -0.681639,0.3088 -0.681641,0.68164 v 2.87109 c 2e-6,0.37284 0.3088,0.67969 0.681641,0.67969 h 3.929687 c 0.372842,0 0.679686,-0.30685 0.679688,-0.67969 v -2.87109 c -2e-6,-0.37284 -0.306846,-0.68164 -0.679688,-0.68164 z"
         id="path1359354" />
      <path
         id="path1373126"
         style="color:#000000;fill:#3a4d5c;fill-opacity:1;stroke-width:0.820525;stroke-linecap:round;stroke-linejoin:round;-inkscape-stroke:none"
         d="m -49.476569,438.17381 a 0.26460996,0.26460996 0 0 0 -0.265615,0.26562 v 0.26355 h 4.234365 c 0.289121,0 0.52968,0.24005 0.529686,0.52916 v 0.52969 c 0.288885,-2.7e-4 0.529161,-0.24022 0.529166,-0.52917 v -0.52968 c -5e-6,-0.28912 -0.240564,-0.52917 -0.529685,-0.52917 z" />
      <path
         id="path1429962"
         style="color:#000000;fill:#5aabdd;fill-opacity:1;stroke-width:0.820525;stroke-linecap:round;stroke-linejoin:round;-inkscape-stroke:none"
         d="m -59.907973,449.28734 c -0.325676,0 -0.602319,0.23554 -0.667142,0.54364 0.04462,-0.009 0.09081,-0.0145 0.137975,-0.0145 h 3.929475 c 0.372843,0 0.679546,0.30877 0.679546,0.68161 v 2.87114 c 0,0.0468 -0.0048,0.0922 -0.01394,0.13643 0.308507,-0.0638 0.543118,-0.33936 0.543118,-0.6656 v -2.87114 c 0,-0.37284 -0.306702,-0.68161 -0.679545,-0.68161 z" />
      <path
         id="path1464205"
         style="color:#000000;fill:#308dd9;fill-opacity:1;stroke-width:0.820525;stroke-linecap:round;stroke-linejoin:round;-inkscape-stroke:none"
         d="m -51.870738,445.84776 c -0.283046,0.007 -0.515726,0.24457 -0.515729,0.52917 h 0.792716 a 0.26460996,0.26460996 0 0 1 0.263549,0.26355 v 1.32446 h 0.265617 a 0.26460996,0.26460996 0 0 0 0.263549,-0.26561 v -1.58802 a 0.26460996,0.26460996 0 0 0 -0.263549,-0.26355 H -51.8573 c -0.0045,0 -0.0089,-1.2e-4 -0.01344,0 z" />
      <path
         id="path1459963"
         style="color:#000000;fill:#308dd9;fill-opacity:1;stroke-width:0.820525;stroke-linecap:round;stroke-linejoin:round;-inkscape-stroke:none"
         d="m -51.870738,443.20141 c -0.283046,0.007 -0.515726,0.24456 -0.515729,0.52917 h 0.792716 a 0.26460996,0.26460996 0 0 1 0.263549,0.26561 v 1.3224 h 0.265617 a 0.26460996,0.26460996 0 0 0 0.263549,-0.26561 v -1.58595 a 0.26460996,0.26460996 0 0 0 -0.263549,-0.26562 H -51.8573 c -0.0045,0 -0.0089,-1.2e-4 -0.01344,0 z" />
      <path
         id="path1459961"
         style="color:#000000;fill:#308dd9;fill-opacity:1;stroke-width:0.820525;stroke-linecap:round;stroke-linejoin:round;-inkscape-stroke:none"
         d="m -51.593751,441.08623 c 0.145313,5.8e-4 0.262968,0.11824 0.263549,0.26355 v 1.3224 h 0.265617 c 0.145313,-5.8e-4 0.262968,-0.11824 0.263549,-0.26355 v -1.58801 c -5.59e-4,-0.14533 -0.118221,-0.26301 -0.263549,-0.26359 l -0.792715,-4.2e-4 c -0.289116,0 -0.529167,0.23851 -0.529167,0.52862 z"
         sodipodi:nodetypes="cccccccccc" />
      <path
         id="path168550"
         style="color:#000000;fill:#2276bc;fill-opacity:1;stroke-width:3.1012;stroke-linecap:round;stroke-linejoin:round;-inkscape-stroke:none"
         d="m -214,609.07227 v 2 h 3.00391 a 1.0000006,1.0000006 0 0 0 0.99609,-0.9961 1.0000006,1.0000006 0 0 0 -0.99609,-1.0039 z m 0,7.5 v 2 h 3.00391 a 1.0000006,1.0000006 0 0 0 0.99609,-0.9961 1.0000006,1.0000006 0 0 0 -0.99609,-1.0039 z m 0,7.5 v 2 h 3.00391 a 1.0000006,1.0000006 0 0 0 0.99609,-0.9961 1.0000006,1.0000006 0 0 0 -0.99609,-1.0039 z"
         transform="matrix(0.26458334,0,0,0.26458334,0,280.06666)" />
      <path
         style="color:#000000;fill:#c8dae5;stroke-width:0.820525;stroke-linecap:round;stroke-linejoin:round;-inkscape-stroke:none"
         d="m -55.5625,437.64453 c -0.289119,0 -0.529297,0.24018 -0.529297,0.5293 v 10.58398 c 0,0.43524 0.357731,0.79297 0.792969,0.79297 h 5.292969 c 0.435238,0 0.792968,-0.35773 0.792968,-0.79297 v -10.58398 c 0,-0.28912 -0.240177,-0.5293 -0.529296,-0.5293 h -1.058594 c -0.289119,0 -0.529297,0.24018 -0.529297,0.5293 v 9.26172 h -2.644531 v -9.26172 c 0,-0.28912 -0.240178,-0.5293 -0.529297,-0.5293 z"
         id="path1359360" />
      <path
         id="path4428"
         style="color:#000000;fill:#e2f0fa;stroke-width:0.820525;stroke-linecap:round;stroke-linejoin:round;-inkscape-stroke:none"
         d="m -58.208851,449.28734 v 4.2323 h 0.529167 v -4.2323 z" />
      <path
         id="path4430"
         style="color:#000000;fill:#5aabdd;stroke-width:0.820525;stroke-linecap:round;stroke-linejoin:round;-inkscape-stroke:none"
         d="m -59.996339,450.27128 -0.593762,0.47646 v 0.67903 l 0.923973,-0.74311 c 0.113565,-0.0912 0.138054,-0.26268 0.04134,-0.37104 -0.09671,-0.10836 -0.238539,-0.13277 -0.371551,-0.0413 z m 2.945556,0.39688 c -0.114392,0.0915 -0.13269,0.2585 -0.04082,0.37258 0.09198,0.11425 0.259342,0.13188 0.373105,0.0393 l 0.491958,-0.39636 c 0.1134,-0.0914 0.131644,-0.2572 0.04082,-0.37104 -0.04392,-0.0549 -0.107884,-0.09 -0.190427,-0.0985 -0.07364,-10e-4 -0.132972,0.019 -0.180608,0.0571 z m 1.75183,-0.0801 -0.923456,0.74207 c -0.112913,0.0918 -0.130464,0.25761 -0.03928,0.37104 0.09137,0.11339 0.257206,0.13163 0.371038,0.0408 l 0.591693,-0.47542 z m -4.36304,0.74207 c -0.11291,0.0918 -0.130456,0.25761 -0.03927,0.37104 0.09137,0.11339 0.257206,0.13163 0.371038,0.0408 l 0.494543,-0.39635 c 0.114735,-0.0915 0.131742,-0.28219 0.04082,-0.37311 -0.09092,-0.0909 -0.231785,-0.1203 -0.373103,-0.0387 z"
         sodipodi:nodetypes="cccczccccccccccccccccccczccc" />
      <path
         style="color:#000000;fill:#3a4d5c;stroke-width:0.820525;stroke-linecap:round;stroke-linejoin:round;-inkscape-stroke:none"
         d="m -53.445312,451.93359 a 0.2645835,0.2645835 0 0 0 -0.265625,0.26368 v 0.26562 a 0.2645835,0.2645835 0 0 0 0.265625,0.26367 0.2645835,0.2645835 0 0 0 0.263671,-0.26367 v -0.26562 a 0.2645835,0.2645835 0 0 0 -0.263671,-0.26368 z"
         id="path4468" />
      <path
         style="color:#000000;fill:#3a4d5c;stroke-width:0.820525;stroke-linecap:round;stroke-linejoin:round;-inkscape-stroke:none"
         d="m -51.857422,451.93359 a 0.2645835,0.2645835 0 0 0 -0.265625,0.26368 v 0.26562 a 0.2645835,0.2645835 0 0 0 0.265625,0.26367 0.2645835,0.2645835 0 0 0 0.263672,-0.26367 v -0.26562 a 0.2645835,0.2645835 0 0 0 -0.263672,-0.26368 z"
         id="path4470" />
      <path
         id="path46039"
         style="color:#000000;fill:#e2f0fa;stroke-width:0.820525;stroke-linecap:round;stroke-linejoin:round;-inkscape-stroke:none"
         d="m -47.625001,449.24807 v 4.23437 h 0.529166 v -4.23437 z" />
      <path
         id="path46041"
         style="color:#000000;fill:#5aabdd;stroke-width:0.820525;stroke-linecap:round;stroke-linejoin:round;-inkscape-stroke:none"
         d="m -49.41404,450.23251 -0.591695,0.47594 v 0.67903 l 0.923459,-0.74104 c 0.114893,-0.0914 0.133445,-0.2588 0.04134,-0.3731 -0.04392,-0.0549 -0.107886,-0.09 -0.195079,-0.0985 -0.07587,3.8e-4 -0.132394,0.0209 -0.178025,0.0576 z m 3.439584,0 -0.494544,0.39843 c -0.11275,0.092 -0.130066,0.25774 -0.03876,0.37104 0.09137,0.11339 0.257204,0.13163 0.371036,0.0408 l 0.494027,-0.39636 c 0.114893,-0.0914 0.133445,-0.2588 0.04134,-0.3731 -0.04392,-0.0549 -0.107886,-0.09 -0.190944,-0.0985 -0.07457,-0.001 -0.134311,0.0191 -0.182155,0.0576 z m 1.259356,0.31677 -0.92346,0.74156 c -0.114893,0.0914 -0.133445,0.2588 -0.04134,0.3731 0.09198,0.11425 0.259342,0.13188 0.373105,0.0393 l 0.591696,-0.47594 z m -3.869016,0.34522 -0.494027,0.39636 c -0.114729,0.0915 -0.133045,0.25894 -0.04082,0.3731 0.09198,0.11425 0.25934,0.13188 0.373102,0.0393 l 0.491961,-0.39636 c 0.113734,-0.0914 0.131997,-0.25764 0.04082,-0.37156 -0.04392,-0.0549 -0.107884,-0.09 -0.190426,-0.0982 -0.07364,-10e-4 -0.132973,0.0193 -0.18061,0.0574 z"
         sodipodi:nodetypes="cccccccccsccccccccccccccccscccc" />
      <path
         id="path1457334"
         style="color:#000000;fill:#308dd9;fill-opacity:1;stroke-width:0.820525;stroke-linecap:round;stroke-linejoin:round;-inkscape-stroke:none"
         d="m -54.240101,443.20141 a 0.26460996,0.26460996 0 0 0 -0.263551,0.26562 v 0.26355 h 0.529167 c 0.289112,0 0.529164,0.24004 0.529166,0.52916 v 1.05834 c 0,1.7e-4 0,2.6e-4 0,5.3e-4 0.289113,0 0.529164,-0.24057 0.529167,-0.52969 v -1.05833 c -3e-6,-0.28912 -0.240054,-0.52917 -0.529167,-0.52917 z" />
      <path
         id="path1458667"
         style="color:#000000;fill:#308dd9;fill-opacity:1;stroke-width:0.820525;stroke-linecap:round;stroke-linejoin:round;-inkscape-stroke:none"
         d="m -54.240101,445.84776 a 0.26460996,0.26460996 0 0 0 -0.263551,0.26355 v 0.26562 h 0.529167 c 0.289112,0 0.529164,0.24005 0.529166,0.52916 v 1.05885 c 0.289113,0 0.529164,-0.24005 0.529167,-0.52916 v -1.05885 c -3e-6,-0.28911 -0.240054,-0.52917 -0.529167,-0.52917 z" />
      <path
         id="path1393038"
         style="color:#000000;fill:#9ebed1;fill-opacity:1;stroke-width:0.820525;stroke-linecap:round;stroke-linejoin:round;-inkscape-stroke:none"
         d="m -55.562501,437.64464 c -0.289119,0 -0.529167,0.24005 -0.529167,0.52917 h 1.058849 c 0.289121,0 0.529167,0.24005 0.529167,0.52917 v 9.26196 h 3.154651 v -0.52916 h -2.625484 v -9.26197 c 0,-0.28912 -0.240046,-0.52917 -0.529167,-0.52917 z m 4.761465,0 c -0.289118,0 -0.529166,0.24005 -0.529166,0.52917 h 1.058851 c 0.289119,0 0.529167,0.24005 0.529167,0.52917 v 10.58385 c 0,0.0796 -0.01191,0.15677 -0.03411,0.22944 0.324654,-0.0994 0.563274,-0.40308 0.563274,-0.75861 v -10.58385 c 0,-0.28912 -0.240049,-0.52917 -0.529167,-0.52917 z"
         sodipodi:nodetypes="scssccccsssscssscssss" />
      <path
         id="path1433323"
         style="color:#000000;fill:#c8dae5;fill-opacity:1;stroke-width:0.820525;stroke-linecap:round;stroke-linejoin:round;-inkscape-stroke:none"
         d="m -58.208851,449.28734 v 0.52917 h 0.529167 v -0.52917 z" />
      <path
         id="path1443918"
         style="color:#000000;fill:#c8dae5;fill-opacity:1;stroke-width:0.820525;stroke-linecap:round;stroke-linejoin:round;-inkscape-stroke:none"
         d="m -47.625001,449.24807 v 0.52917 h 0.529166 v -0.52917 z" />
      <path
         id="path1450605"
         style="color:#000000;fill:#c8dae5;fill-opacity:1;stroke-width:0.820525;stroke-linecap:round;stroke-linejoin:round;-inkscape-stroke:none"
         d="m -52.916152,450.08006 v 0.52917 h 0.529685 v -0.52917 z"
         sodipodi:nodetypes="ccccc" />
    </g>
  </g>
</svg>
